<svg xmlns="http://www.w3.org/2000/svg" xmlns:xlink="http://www.w3.org/1999/xlink" width="500" zoomAndPan="magnify" viewBox="0 0 375 149.999998" height="200" preserveAspectRatio="xMidYMid meet" version="1.0"><defs><clipPath id="78cb445fa7"><path d="M 52.289062 35.257812 C 52.289062 31.375 55.429688 28.238281 59.3125 28.238281 L 170.617188 28.238281 C 174.503906 28.238281 177.640625 31.375 177.640625 35.257812 C 177.640625 39.144531 174.503906 42.28125 170.617188 42.28125 L 59.3125 42.28125 C 55.429688 42.28125 52.289062 39.144531 52.289062 35.257812 Z M 25.996094 42.28125 L 36.007812 42.28125 C 39.890625 42.28125 43.027344 39.144531 43.027344 35.257812 C 43.027344 31.375 39.890625 28.238281 36.007812 28.238281 L 25.996094 28.238281 C 22.113281 28.238281 18.972656 31.375 18.972656 35.257812 C 18.972656 39.144531 22.113281 42.28125 25.996094 42.28125 Z M 148.804688 63.496094 C 148.804688 59.613281 145.667969 56.472656 141.78125 56.472656 L 7.769531 56.472656 C 3.882812 56.472656 0.746094 59.613281 0.746094 63.496094 C 0.746094 67.378906 3.882812 70.519531 7.769531 70.519531 L 141.78125 70.519531 C 145.667969 70.519531 148.804688 67.378906 148.804688 63.496094 Z M 168.527344 84.5625 L 161.804688 84.5625 C 157.917969 84.5625 154.78125 87.699219 154.78125 91.582031 C 154.78125 95.46875 157.917969 98.605469 161.804688 98.605469 L 168.527344 98.605469 C 172.410156 98.605469 175.546875 95.46875 175.546875 91.582031 C 175.546875 87.699219 172.410156 84.5625 168.527344 84.5625 Z M 70.667969 91.582031 C 70.667969 87.699219 67.53125 84.5625 63.644531 84.5625 L 34.0625 84.5625 C 30.179688 84.5625 27.042969 87.699219 27.042969 91.582031 C 27.042969 95.46875 30.179688 98.605469 34.0625 98.605469 L 63.644531 98.605469 C 67.53125 98.605469 70.667969 95.46875 70.667969 91.582031 Z M 214.988281 0 L 78.285156 0 C 74.402344 0 71.265625 3.136719 71.265625 7.023438 C 71.265625 10.90625 74.402344 14.042969 78.285156 14.042969 L 214.988281 14.042969 C 215.738281 14.042969 216.335938 14.640625 216.335938 15.386719 L 216.335938 111.15625 C 216.335938 111.902344 215.738281 112.5 214.988281 112.5 L 50.050781 112.5 C 46.164062 112.5 43.027344 115.636719 43.027344 119.523438 C 43.027344 123.40625 46.164062 126.542969 50.050781 126.542969 L 214.988281 126.542969 C 223.507812 126.542969 230.527344 119.523438 230.527344 111.007812 L 230.527344 15.539062 C 230.527344 7.023438 223.507812 0 214.988281 0 Z M 91.882812 84.5625 C 87.996094 84.5625 84.859375 87.699219 84.859375 91.582031 C 84.859375 95.46875 87.996094 98.605469 91.882812 98.605469 L 139.390625 98.605469 C 143.277344 98.605469 146.414062 95.46875 146.414062 91.582031 C 146.414062 87.699219 143.277344 84.5625 139.390625 84.5625 Z M 368.574219 98.308594 L 367.082031 98.308594 L 367.082031 77.089844 C 367.082031 72.460938 364.691406 65.585938 361.851562 62.003906 L 319.273438 6.871094 C 316.433594 3.136719 310.308594 0.148438 305.675781 0.148438 L 248.90625 0.148438 C 244.273438 0.148438 240.386719 3.882812 240.386719 8.664062 L 240.386719 118.328125 C 240.386719 122.957031 244.125 126.84375 248.90625 126.84375 L 275.945312 126.84375 C 275.945312 110.855469 288.945312 98.007812 304.78125 98.007812 C 320.617188 98.007812 333.617188 111.007812 333.617188 126.84375 L 358.566406 126.84375 C 358.714844 126.84375 359.015625 126.84375 359.164062 126.84375 C 359.3125 126.84375 359.613281 126.84375 359.761719 126.84375 L 368.425781 126.84375 C 371.5625 126.84375 374.105469 124.304688 374.105469 121.164062 L 374.105469 103.835938 C 374.253906 100.847656 371.714844 98.308594 368.574219 98.308594 Z M 327.9375 126.84375 C 327.9375 139.542969 317.628906 150 304.78125 150 C 291.933594 150 281.625 139.691406 281.625 126.84375 C 281.625 114.144531 291.933594 103.683594 304.78125 103.683594 C 317.628906 103.683594 327.9375 114.144531 327.9375 126.84375 Z M 313.445312 126.84375 C 313.445312 122.0625 309.5625 118.328125 304.929688 118.328125 C 300.296875 118.328125 296.414062 122.210938 296.414062 126.84375 C 296.414062 131.625 300.296875 135.359375 304.929688 135.359375 C 309.5625 135.359375 313.445312 131.625 313.445312 126.84375 Z M 313.445312 126.84375 " clip-rule="nonzero"/></clipPath></defs><g clip-path="url(#78cb445fa7)"><path fill="#facc15" d="M 0.746094 0 L 0.746094 150 L 374.253906 150 L 374.253906 0 Z M 0.746094 0 " fill-opacity="1" fill-rule="nonzero"/></g></svg>